<svg preserveAspectRatio="none" overflow="visible" style="display: block;" width="44" height="44" viewBox="0 0 44 44" fill="none" xmlns="http://www.w3.org/2000/svg">
<g id="Group">
<path id="Vector" d="M11.6688 9.53691C7.46041 12.6922 5.03737 17.4592 5.03737 22.6105C5.03737 26.5345 6.45931 30.1423 8.82496 32.9752C9.55825 33.8554 9.56463 35.1076 8.85685 36.0003C7.85575 37.2587 5.91732 37.2587 4.88434 36.0189C1.83641 32.3491 0 27.6813 0 22.6105C0 15.9156 3.13082 9.74147 8.59541 5.65636C9.69216 4.8257 11.2799 5.03026 12.128 6.09648C12.9696 7.1751 12.7656 8.71245 11.6688 9.53071V9.53691Z" fill="#FF7300"/>
<path id="Vector_2" d="M43.9907 23.2428C43.6655 34.246 34.5599 43.3523 23.2545 43.966C19.6072 44.1643 16.1448 43.4886 13.0523 42.1373C11.5602 41.4864 11.0756 39.6577 12.0767 38.3993C12.7781 37.5128 14.0151 37.1905 15.0672 37.6492C17.1842 38.5791 19.5307 39.0998 22.0048 39.0998C31.3526 39.0998 38.9597 31.7044 38.9597 22.6105C38.9597 17.4468 36.5494 12.686 32.3409 9.54312C31.2314 8.71246 31.0274 7.17512 31.8755 6.10889C32.7299 5.03027 34.3113 4.83191 35.408 5.65637C41.0448 9.87166 44.1947 16.3124 43.9907 23.249V23.2428Z" fill="#0064FF"/>
<path id="Vector_3" d="M20.9655 10.194C24.6957 10.8821 27.9031 7.764 27.1953 4.13761C26.8 2.11055 25.123 0.480222 23.0379 0.0958859C19.3077 -0.592199 16.1003 2.52588 16.8081 6.15227C17.2034 8.17933 18.8804 9.80966 20.9655 10.194Z" fill="#F5A000"/>
</g>
</svg>
